#!OML:ASF F:\VICON\USERDATA\INSTALL\rory3\rory3.ASF
:FULLY-SPECIFIED
:DEGREES
180
root 0.4358814130006463 17.61859087322283 64.27783906918908 -1.6303078808757194 -0.8900204127188063 -2.704744624826629
lfemur -14.206204263448427 -2.7874571750521984 -17.503017954067083
ltibia 25.98209363404157
lfoot -5.098446706383866 1.5771993141501897
ltoes -6.528602774541122
rfemur -18.63984184470116 1.49414040093357 26.215817957572764
rtibia 41.441901701889336
rfoot -3.9367816421554447 -11.482641031123258
rtoes 4.697860956932939
lowerback 11.509607604964135 0.1740924312637809 2.08695484560817
upperback -0.38116637032816725 0.6774869489941879 2.1074441594499724
thorax -6.352263219399793 0.2704164324251289 0.7791151188921086
lowerneck -16.147990916841703 -3.1839902162822162 -3.3900479906231293
upperneck 21.992680421495788 -3.972046755402115 1.877746751198284
head 9.634396812040434 -1.8871042419201263 0.7913023649465414
lclavicle -2.0253927363379427e-15 -7.110683883538941e-16
lhumerus -34.09956066308633 2.399307871456376 80.31159819734079
lradius 29.04060050572246
lwrist 6.153289651592123
lhand -29.646304043312565 19.384888766187338
lfingers 7.12502
lthumb -2.674710945227482 49.70871350887853
rclavicle -2.027884627115714e-15 -7.126448332930995e-16
rhumerus -29.653549446838056 -21.730365495077915 -75.65503815617468
rradius 20.313143765091684
rwrist 6.8548937652863335
rhand -17.642503243580595 21.837694742652094
rfingers 7.12502
rthumb 8.21074354940465 -7.61059332471431
181
root 0.4368699903262353 17.635947740671167 64.53559237525205 -1.7375042284137994 -0.7473966607124221 -2.559253747997361
lfemur -13.886721972967155 -2.9254314353317934 -17.744389924396415
ltibia 25.65195633288493
lfoot -5.04179217344968 1.0303246193537454
ltoes -6.443607425958641
rfemur -18.80144058598026 1.177524108655593 26.180701780670216
rtibia 41.39812625014279
rfoot -3.8096405418367105 -11.759800883261576
rtoes 4.833025829145729
lowerback 11.58620273162512 0.14052571505102968 1.9795286102735021
upperback -0.32526625428389194 0.5979011369609951 2.1191992400450124
thorax -6.326957627159804 0.24169482175571838 0.7954756932839349
lowerneck -16.18076727044703 -3.1811052954979093 -3.3522155536278953
upperneck 22.04259294075744 -3.963658806041064 1.8421579064327904
head 9.653919344426871 -1.8855666005321925 0.7752439269345477
lclavicle -2.025805311303746e-15 -7.11330963112635e-16
lhumerus -34.52787645771797 2.9462025510034224 80.24823183168952
lradius 28.33149413983201
lwrist 5.846021688042303
lhand -29.581134312411002 19.762420314540805
lfingers 7.12502
lthumb -2.6719824020864658 50.049602624379794
rclavicle -2.0273856077271063e-15 -7.123261749371004e-16
rhumerus -29.80943255496703 -22.073219355129684 -75.62827623596294
rradius 20.19491483525207
rwrist 6.6463043855571495
rhand -17.636056552446753 21.81338042795763
rfingers 7.12502
rthumb 8.21136664057374 -7.560634047513314
182
root 0.43236820164476625 17.677677057575135 64.73341632853446 -1.7593241157234711 -0.4435768576481539 -2.6257665782525206
lfemur -13.493821212213705 -3.125053540679652 -17.765751621492598
ltibia 25.457591837913107
lfoot -4.175182555090387 -0.10209604956502849
ltoes -6.290554259188087
rfemur -18.876817818397026 0.9411205978258055 26.24651687415985
rtibia 40.98775628032057
rfoot -3.715044483189428 -11.981246731525157
rtoes 4.899424312086291
lowerback 11.635920215355831 0.04843141737425033 2.0404932119654204
upperback -0.29914818479998434 0.4819763870880912 2.173465902755933
thorax -6.310172867743074 0.18859217627823388 0.8042171676308114
lowerneck -16.216964227226512 -3.178053715529086 -3.334375978725185
upperneck 22.101330553960235 -3.9560417374062817 1.8190276455163847
head 9.671041469261297 -1.884316052703199 0.7695520358337438
lclavicle -2.026273823246392e-15 -7.116311960014184e-16
lhumerus -34.84388115947393 3.5258783249342414 80.12486422265106
lradius 27.54634967736177
lwrist 5.502038776509372
lhand -29.35213466571828 20.07957040883343
lfingers 7.12502
lthumb -2.473657376472963 50.37117986679236
rclavicle -2.027392849700401e-15 -7.123308075371445e-16
rhumerus -30.032137908213436 -22.42045446513667 -75.58457902640987
rradius 20.151736341043705
rwrist 6.317875986118751
rhand -17.566940589978397 21.75904557824928
rfingers 7.12502
rthumb 8.27032654837874 -7.599913189401898
183
root 0.43034240605034646 17.695120319932904 64.82725787624187 -1.8958650267163986 -0.3366334417084872 -3.005453782941833
lfemur -13.275351919494792 -3.154736426642541 -17.40142705764218
ltibia 25.910683392062126
lfoot -3.1589368532468898 -1.0992619639190484
ltoes -6.274745643444007
rfemur -18.915659021664464 0.9126251630904907 26.584503135378593
rtibia 40.63234259254523
rfoot -3.7096317380998522 -12.12032736059315
rtoes 5.167674620515671
lowerback 11.816293928999679 0.017732688882982822 2.3112424536197844
upperback -0.22828139293069508 0.5041228790662331 2.271386030414984
thorax -6.3570184167998045 0.19217282400055122 0.7274187774099593
lowerneck -16.24092263687872 -3.1764146986238813 -3.3170124362383517
upperneck 22.127365885411372 -3.9497175194399756 1.8059241529253527
head 9.677810536976871 -1.8817026873393319 0.7623095644572842
lclavicle -2.0267694069991925e-15 -7.1194869040850955e-16
lhumerus -35.07366152933276 3.9782361686036274 80.0383427658239
lradius 26.871291733657838
lwrist 5.572258208484624
lhand -29.10872403765826 20.067165600197058
lfingers 7.12502
lthumb -2.2415358927729994 50.425398895498276
rclavicle -2.0276990168277146e-15 -7.125263248863762e-16
rhumerus -30.16049059110119 -22.558729304630674 -75.62703857531875
rradius 20.21256845304179
rwrist 5.921245341258324
rhand -17.429005657276374 21.710646125071833
rfingers 7.12502
rthumb 8.32411662845263 -7.549452954634639
